<svg width="16" height="16" viewBox="0 0 16 16" fill="none" xmlns="http://www.w3.org/2000/svg">
<path fill-rule="evenodd" clip-rule="evenodd" d="M8 0C12.4187 0 16 3.58125 16 8C16 12.4187 12.4187 16 8 16C3.58125 16 0 12.4187 0 8C0 3.58125 3.58125 0 8 0Z" fill="url(#paint0_radial_925_243)"/>
<path d="M5.08438 6.17813C6.69376 4.60625 9.30626 4.60625 10.9156 6.17813L11.1094 6.36875C11.1906 6.44688 11.1906 6.575 11.1094 6.65313L10.4469 7.3C10.4063 7.34063 10.3406 7.34063 10.3 7.3L10.0344 7.04063C8.90938 5.94375 7.09063 5.94375 5.96563 7.04063L5.68126 7.31875C5.64063 7.35938 5.57501 7.35938 5.53438 7.31875L4.87188 6.67188C4.79063 6.59375 4.79063 6.46563 4.87188 6.3875L5.08438 6.17813ZM12.2875 7.51563L12.8781 8.09063C12.9594 8.16875 12.9594 8.29688 12.8781 8.375L10.2188 10.9719C10.1375 11.05 10.0063 11.05 9.92813 10.9719L8.04063 9.12813C8.02188 9.10938 7.98751 9.10938 7.96876 9.12813L6.08126 10.9719C6.00001 11.05 5.86876 11.05 5.79063 10.9719L3.12188 8.375C3.04063 8.29688 3.04063 8.16875 3.12188 8.09063L3.71251 7.51563C3.79376 7.4375 3.92501 7.4375 4.00313 7.51563L5.89063 9.35938C5.90938 9.37813 5.94376 9.37813 5.96251 9.35938L7.85001 7.51563C7.93126 7.4375 8.06251 7.4375 8.14063 7.51563L10.0281 9.35938C10.0469 9.37813 10.0813 9.37813 10.1 9.35938L11.9875 7.51563C12.075 7.4375 12.2063 7.4375 12.2875 7.51563Z" fill="white"/>
<defs>
<radialGradient id="paint0_radial_925_243" cx="0" cy="0" r="1" gradientUnits="userSpaceOnUse" gradientTransform="translate(4.95911e-05 8.00025) scale(16)">
<stop stop-color="#5D9DF6"/>
<stop offset="1" stop-color="#006FFF"/>
</radialGradient>
</defs>
</svg>
