<svg width="18" height="16" viewBox="0 0 18 16" fill="none" xmlns="http://www.w3.org/2000/svg">
<g clip-path="url(#clip0_925_187)">
<path d="M16.6711 0L9.3479 5.41862L10.7097 2.22525L16.6711 0Z" fill="#E17726"/>
<path d="M0.41272 0.00637817L6.35812 2.22565L7.65121 5.46089L0.41272 0.00637817Z" fill="#E27625"/>
<path d="M13.724 11.5239L16.9607 11.5855L15.8295 15.4283L11.88 14.3408L13.724 11.5239Z" fill="#E27625"/>
<path d="M3.34263 11.5239L5.17978 14.3409L1.23689 15.4284L0.112579 11.5855L3.34263 11.5239Z" fill="#E27625"/>
<path d="M7.47539 4.63678L7.6077 8.90901L3.64963 8.72893L4.77547 7.03043L4.78972 7.01405L7.47539 4.63678Z" fill="#E27625"/>
<path d="M9.55028 4.58914L12.2769 7.01424L12.291 7.03049L13.4169 8.72899L9.45975 8.90903L9.55028 4.58914Z" fill="#E27625"/>
<path d="M5.29566 11.5363L7.45688 13.2202L4.94635 14.4323L5.29566 11.5363Z" fill="#E27625"/>
<path d="M11.7714 11.536L12.1134 14.4323L9.60995 13.2201L11.7714 11.536Z" fill="#E27625"/>
<path d="M9.66519 13.0614L12.2057 14.2916L9.84252 15.4147L9.86705 14.6724L9.66519 13.0614Z" fill="#D5BFB2"/>
<path d="M7.40076 13.062L7.20681 14.6603L7.22272 15.4138L4.85403 14.2916L7.40076 13.062Z" fill="#D5BFB2"/>
<path d="M6.66714 9.46658L7.33101 10.8618L5.07077 10.1997L6.66714 9.46658Z" fill="#233447"/>
<path d="M10.3994 9.46674L12.0033 10.1996L9.73575 10.8616L10.3994 9.46674Z" fill="#233447"/>
<path d="M5.46842 11.522L5.10306 14.5247L3.14487 11.5877L5.46842 11.522Z" fill="#CC6228"/>
<path d="M11.5984 11.522L13.922 11.5877L11.9565 14.5248L11.5984 11.522Z" fill="#CC6228"/>
<path d="M13.4742 8.55914L11.7831 10.2825L10.4794 9.68674L9.85514 10.999L9.44592 8.74242L13.4742 8.55914Z" fill="#CC6228"/>
<path d="M3.59171 8.55911L7.62065 8.74242L7.21144 10.999L6.58709 9.68691L5.29018 10.2826L3.59171 8.55911Z" fill="#CC6228"/>
<path d="M3.47772 8.20551L5.39094 10.1469L5.45725 12.0635L3.47772 8.20551Z" fill="#E27525"/>
<path d="M13.5909 8.202L11.6078 12.0669L11.6825 10.1469L13.5909 8.202Z" fill="#E27525"/>
<path d="M7.52712 8.3237L7.60412 8.80837L7.79439 10.0158L7.67207 13.7241L7.09373 10.7452L7.09354 10.7143L7.52712 8.3237Z" fill="#E27525"/>
<path d="M9.53853 8.31702L9.97327 10.7144L9.97308 10.7452L9.39329 13.7316L9.37034 12.9846L9.27988 9.9938L9.53853 8.31702Z" fill="#E27525"/>
<path d="M11.8526 10.0697L11.7878 11.7349L9.76954 13.3074L9.36154 13.0191L9.81888 10.6634L11.8526 10.0697Z" fill="#F5841F"/>
<path d="M5.2211 10.0698L7.24775 10.6635L7.70508 13.0191L7.29708 13.3074L5.2787 11.7348L5.2211 10.0698Z" fill="#F5841F"/>
<path d="M4.46786 13.9238L7.05 15.1473L7.03907 14.6248L7.25511 14.4352H9.8107L10.0346 14.6242L10.0181 15.1463L12.5838 13.9269L11.3353 14.9586L9.82563 15.9955H7.23442L5.7257 14.9544L4.46786 13.9238Z" fill="#C0AC9D"/>
<path d="M9.48023 12.8986L9.84531 13.1565L10.0593 14.8635L9.74964 14.6021H7.31794L7.01422 14.8688L7.22114 13.1566L7.58635 12.8986H9.48023Z" fill="#161616"/>
<path d="M16.1876 0.149994L17.0667 2.78716L16.5177 5.45359L16.9086 5.75517L16.3796 6.15876L16.7772 6.46578L16.2507 6.94522L16.5739 7.17927L15.7162 8.18099L12.1982 7.1567L12.1677 7.14036L9.6326 5.00179L16.1876 0.149994Z" fill="#763E1A"/>
<path d="M0.879067 0.149994L7.4341 5.00179L4.89896 7.14036L4.86847 7.1567L1.35045 8.18099L0.492748 7.17927L0.815685 6.94539L0.289501 6.46578L0.686304 6.15909L0.149422 5.75435L0.555086 5.45259L0 2.78726L0.879067 0.149994Z" fill="#763E1A"/>
<path d="M12.0261 6.93268L15.7536 8.01793L16.9647 11.7503L13.7698 11.7503L11.5684 11.7781L13.1693 8.65754L12.0261 6.93268Z" fill="#F5841F"/>
<path d="M5.04054 6.93268L3.89712 8.65754L5.49828 11.7781L3.29796 11.7503H0.108704L1.31293 8.01796L5.04054 6.93268Z" fill="#F5841F"/>
<path d="M10.8923 2.20746L9.84965 5.02338L9.6284 8.82743L9.54374 10.0197L9.53702 13.0656H7.52959L7.52309 10.0255L7.43815 8.82638L7.21679 5.02338L6.17435 2.20746H10.8923Z" fill="#F5841F"/>
</g>
<defs>
<clipPath id="clip0_925_187">
<rect width="17.0667" height="16" fill="white"/>
</clipPath>
</defs>
</svg>
