<svg width="16" height="16" viewBox="0 0 16 16" fill="none" xmlns="http://www.w3.org/2000/svg">
<g clip-path="url(#clip0_925_234)">
<path fill-rule="evenodd" clip-rule="evenodd" d="M3.33248 0H12.6669C14.5082 0 16 1.60512 16 3.58528V12.4147C16 14.3949 14.5082 16 12.6675 16H3.33248C1.49184 16 0 14.3949 0 12.4147V3.58528C0 1.60512 1.49184 0 3.33248 0Z" fill="#0052FF"/>
<path fill-rule="evenodd" clip-rule="evenodd" d="M8 2.31744C11.1386 2.31744 13.6826 4.86144 13.6826 8C13.6826 11.1386 11.1386 13.6826 8 13.6826C4.86144 13.6826 2.31744 11.1386 2.31744 8C2.31744 4.86144 4.86144 2.31744 8 2.31744Z" fill="white"/>
<path fill-rule="evenodd" clip-rule="evenodd" d="M6.60033 6.18369H9.39904C9.62945 6.18369 9.81568 6.38464 9.81568 6.63168V9.36768C9.81568 9.61536 9.6288 9.81568 9.39904 9.81568H6.60033C6.36993 9.81568 6.18369 9.61472 6.18369 9.36768V6.63168C6.18369 6.38464 6.37057 6.18369 6.60033 6.18369Z" fill="#0052FF"/>
</g>
<defs>
<clipPath id="clip0_925_234">
<rect width="16" height="16" fill="white"/>
</clipPath>
</defs>
</svg>
