<svg width="16" height="16" viewBox="0 0 16 16" fill="none" xmlns="http://www.w3.org/2000/svg">
<path d="M14.1852 7.46154H12.6777C12.2261 7.46154 11.8629 7.8583 11.8629 8.34433V10.715C11.8629 11.2043 11.4967 11.5978 11.0481 11.5978H5.04556C4.59392 11.5978 4.23077 11.9945 4.23077 12.4806V14.1172C4.23077 14.6065 4.59697 15 5.04556 15H11.393C11.8446 15 12.2017 14.6032 12.2017 14.1172V12.8079C12.2017 12.3186 12.5678 11.9747 13.0164 11.9747H14.1852C14.6369 11.9747 15 11.5779 15 11.0919V8.33772C15 7.84507 14.6338 7.46154 14.1852 7.46154Z" fill="black"/>
<path d="M4.13886 4.67488C4.13886 4.25489 4.50527 3.9172 4.95411 3.9172H10.954C11.4059 3.9172 11.7692 3.57667 11.7692 3.15952V1.75768C11.7692 1.33769 11.4028 1 10.954 1H4.60603C4.15413 1 3.79078 1.34053 3.79078 1.75768V2.83886C3.79078 3.25884 3.42437 3.59653 2.97553 3.59653H1.81525C1.36335 3.59653 1 3.93706 1 4.35421V6.72089C1 7.14087 1.3664 7.46154 1.8183 7.46154H3.32667C3.77857 7.46154 4.14192 7.12101 4.14192 6.70386L4.13886 4.67488Z" fill="black"/>
<path d="M7.25864 6.38461H8.74136C9.22519 6.38461 9.61538 6.77793 9.61538 7.25864V8.74136C9.61538 9.22519 9.22207 9.61538 8.74136 9.61538H7.25864C6.7748 9.61538 6.38461 9.22207 6.38461 8.74136V7.25864C6.38461 6.7748 6.77792 6.38461 7.25864 6.38461Z" fill="black"/>
</svg>
